#!OML:ASF F:\VICON\USERDATA\INSTALL\rory3\rory3.ASF
:FULLY-SPECIFIED
:DEGREES
60
root 0.26921666983796655 17.73896661249904 13.574358733458928 -0.6730691244947233 -3.8410344685409425 -7.526664617389018
lfemur -26.226063651853963 -7.732521289107024 -8.712761141144439
ltibia 27.955550960083293
lfoot -6.687459242964255 -1.9266945762916647
ltoes -5.174918691395028
rfemur 0.6637763717746807 6.361072163452999 31.696214992315916
rtibia 38.79204346535415
rfoot -6.8229528895280085 -4.091781301463822
rtoes 4.193480639912712
lowerback 9.256957975990222 1.9441835444406403 5.780297713705469
upperback -0.05855357891251825 3.3325984534318733 1.7948667854074327
thorax -4.979050523504515 1.4897728295587525 -1.4468371137095837
lowerneck -15.817914288803932 -2.696150876520274 -1.7380288131779398
upperneck 21.41725905280508 -3.326979129278766 0.8189946470403976
head 9.318211097379834 -1.8285315064425198 0.06354418234362907
lclavicle -1.3879679698967578e-15 -1.844200305406208e-15
lhumerus -37.550038169606445 9.923949975852253 79.39209197674884
lradius 20.225444022309084
lwrist -0.737469288301587
lhand -27.57359566392982 23.38707688903388
lfingers 7.125019999999999
lthumb -0.7131677370368841 53.81576076736521
rclavicle -1.3889733826506718e-15 -1.8451345541813987e-15
rhumerus -20.765507284852163 -12.613261056719844 -82.1464076100376
rradius 24.854762053758982
rwrist 1.9063443083282925
rhand -18.36995798153705 22.787523813546287
rfingers 7.125019999999999
rthumb 7.943423641431165 -7.04522085623383
61
root 0.3320487859067441 17.69560653860102 14.59636691965728 -1.0143626056893886 -3.795487486200906 -7.023625562199355
lfemur -26.325627731058475 -4.848639551754435 -10.740853902420527
ltibia 30.838840688944227
lfoot -7.1221389760210725 -2.68924039444797
ltoes -5.082389317910297
rfemur 1.7088900900266744 6.525304701708398 31.154803867660455
rtibia 41.74586908099726
rfoot -6.595601078039379 -3.975513066097743
rtoes 4.98473232701036
lowerback 9.295462005723909 1.9940871560267734 5.407693252454196
upperback -0.03077892350071018 3.273356243678801 1.6265515532773898
thorax -4.9738127418920905 1.5229024679896699 -1.2455517890251098
lowerneck -15.78429032207681 -2.7398833779895497 -1.7353452620594219
upperneck 21.363810559194462 -3.4345501211519416 0.8547034809927772
head 9.32614659561272 -1.843895539598665 0.08706148177449499
lclavicle -1.3879679699859974e-15 -1.844200305489131e-15
lhumerus -37.734514430681756 10.366307526863045 79.05767245366239
lradius 21.217048327814496
lwrist -0.22983968422248902
lhand -27.658182278874193 23.19515673195064
lfingers 7.125019999999999
lthumb -0.7653610695670358 53.69014559636151
rclavicle -1.3889733826876264e-15 -1.8451345542157374e-15
rhumerus -21.08044410573536 -13.494428206621336 -81.93550487943621
rradius 25.519799916617075
rwrist 1.8791001914505454
rhand -18.340644652373037 22.814800162028764
rfingers 7.125019999999999
rthumb 7.975152032214164 -7.0056863397995635
62
root 0.40477498002487045 17.677809225032348 15.664631164329707 -1.6341654089690316 -3.626827695384655 -6.253338574759093
lfemur -26.75176590168298 -3.5694683231891355 -12.961047207499657
ltibia 33.68591591081358
lfoot -5.9627242402299165 -1.7794288261973303
ltoes -4.797265895934624
rfemur 2.2282785108054437 6.449464470345554 30.378422434060724
rtibia 44.95724074583584
rfoot -5.823933105799039 -3.757373086717203
rtoes 5.421915721149563
lowerback 9.401077302617255 2.0110494538396906 4.8337247980077365
upperback 0.015950070342763606 3.1339789423164177 1.4048784181672707
thorax -4.984668234356264 1.5288385699659235 -1.0193666237998495
lowerneck -15.777400990235348 -2.786433136977732 -1.748660828537063
upperneck 21.328549244695644 -3.5320978839389205 0.8783467731005454
head 9.33786242302369 -1.8490680269068664 0.10849970470697623
lclavicle -1.3879679699857054e-15 -1.8442003054888597e-15
lhumerus -37.698611493341915 10.477728442875307 78.95022110993783
lradius 22.168112130350668
lwrist 0.7566354175471037
lhand -27.538525872742664 23.39889323976208
lfingers 7.125019999999999
lthumb -0.6193319237591228 53.918406774049565
rclavicle -1.3889733826875252e-15 -1.8451345542156435e-15
rhumerus -21.831744894261913 -14.809872723074596 -81.55470728462974
rradius 26.154509644817256
rwrist 2.0546500774598453
rhand -18.394345963826172 22.726540322168038
rfingers 7.125019999999999
rthumb 8.003726282266621 -6.978641983405797
63
root 0.4790617954982909 17.684954984798576 16.529549335572167 -2.3812846892595037 -3.513318390861821 -5.274403552691457
lfemur -25.46592371973302 -3.3306184212220087 -14.83732649955984
ltibia 36.004402948817855
lfoot -6.699701670507434 -1.8281799832383965
ltoes -4.452205343818408
rfemur 2.0181626443192044 6.000528512993297 29.25943939684187
rtibia 47.87531423301298
rfoot -4.5530636331101695 -3.5419745458705814
rtoes 5.4698080751427725
lowerback 9.562948790634852 1.9836557283317948 4.018886796101848
upperback 0.10071223174460164 3.0051460335589533 1.1874668387178517
thorax -5.021996166666716 1.5038357778028735 -0.7598850249715294
lowerneck -15.787641546509317 -2.8332343310002748 -1.7759006621128401
upperneck 21.36320998963845 -3.560674171050593 0.9345120656501036
head 9.344801877000366 -1.8444120910666322 0.1261006708603113
lclavicle -1.3879679699858988e-15 -1.8442003054890395e-15
lhumerus -37.40477964646495 10.10522597923401 79.10967814684841
lradius 23.020137874212736
lwrist 1.587107283913068
lhand -27.6538685262339 23.176853307788235
lfingers 7.125019999999999
lthumb -0.6227667727262882 53.862825628590045
rclavicle -1.3889733826875786e-15 -1.8451345542156932e-15
rhumerus -22.874106533553658 -16.468876435100405 -81.04754334026812
rradius 26.662444987516075
rwrist 2.460239527187879
rhand -18.35680004166368 22.752445009591
rfingers 7.125019999999999
rthumb 8.021369191086093 -6.967080755467199
64
root 0.5548187633870393 17.71335645542252 17.518711134850463 -3.0665533637263227 -3.5556988730115044 -4.096163791998594
lfemur -23.658625946987673 -2.52244755794671 -16.773897426506
ltibia 37.65799227456849
lfoot -7.391789110611697 -1.2484944712131354
ltoes -4.263866082969043
rfemur 0.6319854249701251 5.347402810570003 27.805098688779722
rtibia 50.053263363781184
rfoot -3.395625927836365 -3.5393702241363982
rtoes 5.134889536973366
lowerback 9.779850236683973 1.9490939898146784 3.2125002234799065
upperback 0.1940695099849874 2.74228784865049 0.9461359653287694
thorax -5.072194331066547 1.4433680828259576 -0.4815739738919267
lowerneck -15.820745049755114 -2.875888927566061 -1.8197828752867353
upperneck 21.315156483130167 -3.5750293060656118 0.9318747904217523
head 9.360611439881144 -1.822206755841776 0.1539150613329347
lclavicle -1.387967969986247e-15 -1.844200305489363e-15
lhumerus -36.80987045686548 9.30872515864985 79.48851812006184
lradius 23.833389871268785
lwrist 2.2463339937214157
lhand -27.49958090086856 23.44347007705453
lfingers 7.125019999999999
lthumb -0.5323534188133876 54.007288206046745
rclavicle -1.3889733826874895e-15 -1.8451345542156104e-15
rhumerus -23.942952795897604 -18.328760987255105 -80.4972390763819
rradius 26.97756445819661
rwrist 2.844219545747532
rhand -18.371047037552152 22.730605850540655
rfingers 7.125019999999999
rthumb 8.023209460808882 -6.9692000704779815
65
root 0.6180368733954568 17.752118660504454 18.276180594995107 -3.605625141422184 -3.7693720803480346 -2.928894484596509
lfemur -21.14897406138136 -1.801099053271564 -19.081681897379625
ltibia 38.69419663686146
lfoot -8.267548316967291 -1.1289786362190328
ltoes -4.319139871713598
rfemur -1.9523863796678782 4.648570944556531 26.229917962368074
rtibia 51.13345035234738
rfoot -2.543583563180646 -3.6234217227026986
rtoes 4.73634269782432
lowerback 10.00106500190273 1.8589639227535757 2.454998256855232
upperback 0.3031227996388532 2.3826685051849648 0.7544390328126511
thorax -5.1317087804815085 1.339198981937951 -0.18295209569227322
lowerneck -15.859324733953407 -2.9064344321385325 -1.8720215238934494
upperneck 21.300414747818085 -3.5338576180118375 0.9601470098634505
head 9.372406442888908 -1.7908637822765514 0.1775088688551298
lclavicle -1.3879679699858902e-15 -1.8442003054890317e-15
lhumerus -35.94106707985826 8.134633398737268 79.96401790713163
lradius 24.614365417405143
lwrist 2.8599171306752873
lhand -27.543781383862896 23.315029196558164
lfingers 7.125019999999999
lthumb -0.6189164516162303 53.850408934302564
rclavicle -1.3889733826874461e-15 -1.84513455421557e-15
rhumerus -24.810766365106893 -20.17530788276634 -79.85515552038683
rradius 27.149021108399324
rwrist 3.1288189356270975
rhand -18.332362468515175 22.776863957070102
rfingers 7.125019999999999
rthumb 8.002956651602336 -7.003299677516385
66
root 0.6692857144169579 17.79624710742125 19.18330177998266 -3.9767628222517377 -3.939927098011492 -1.902344969895583
lfemur -17.957485037663474 -1.9165173645220475 -21.17466312689188
ltibia 38.977460393082296
lfoot -8.10287255285576 -0.7977549721086774
ltoes -4.666541403926174
rfemur -5.300639137965376 3.8792729808333792 24.69271752214302
rtibia 51.17506046447545
rfoot -2.1135952195812813 -3.746071151382107
rtoes 4.413665553359155
lowerback 10.218820785452595 1.6776476177776554 1.6962745081865074
upperback 0.40800602344069953 1.9111765916991084 0.6378060924804496
thorax -5.196960876834211 1.1899782583926637 0.1333154741735716
lowerneck -15.881041339192937 -2.909880403983617 -1.8969173732681723
upperneck 21.248227647249625 -3.490268935303994 0.9617727041838113
head 9.375703713796511 -1.7628735534965845 0.18758332328987198
lclavicle -1.387967969986144e-15 -1.8442003054892675e-15
lhumerus -34.745589061459754 6.771331776738998 80.44574453595227
lradius 25.38745958853461
lwrist 3.2807422972853937
lhand -27.40987123692939 23.54704007623121
lfingers 7.125019999999999
lthumb -0.587876858731369 53.933590061021754
rclavicle -1.3889733826873067e-15 -1.8451345542154404e-15
rhumerus -25.627400100940743 -22.04133451862179 -79.13728297082578
rradius 27.102881964166112
rwrist 3.6523695667091354
rhand -18.34705976928978 22.736882217343005
rfingers 7.125019999999999
rthumb 7.97931778461294 -7.044297164475644
